<svg xmlns="http://www.w3.org/2000/svg" xmlns:xlink="http://www.w3.org/1999/xlink" width="1890" zoomAndPan="magnify" viewBox="0 0 1417.5 1417.500002" height="1890" preserveAspectRatio="xMidYMid meet" version="1.0"><defs><g/><clipPath id="d698dde7e6"><path d="M 335 521 L 1217.460938 521 L 1217.460938 677 L 335 677 Z M 335 521 " clip-rule="nonzero"/></clipPath><clipPath id="47be520bfd"><path d="M 212.066406 435 L 764 435 L 764 522 L 212.066406 522 Z M 212.066406 435 " clip-rule="nonzero"/></clipPath><clipPath id="ab34bd90bc"><path d="M 434 626 L 1093 626 L 1093 694.875 L 434 694.875 Z M 434 626 " clip-rule="nonzero"/></clipPath></defs><path fill="#ffffff" d="M 0 0 L 1417 0 L 1417 1417 L 0 1417 Z M 0 0 " fill-opacity="1" fill-rule="nonzero"/><path fill="#1e1f49" d="M 0 0 L 1417 0 L 1417 1417 L 0 1417 Z M 0 0 " fill-opacity="1" fill-rule="nonzero"/><g clip-path="url(#d698dde7e6)"><path fill="#ffffff" d="M 1138.210938 589.449219 C 1106.71875 565.359375 1069.851562 547.667969 1031.089844 537.953125 C 1011.738281 532.976562 992.011719 529.632812 972.234375 527.558594 C 952.441406 525.640625 932.597656 524.921875 912.832031 524.988281 C 873.289062 525.160156 834.074219 528.835938 795.226562 533.523438 C 775.78125 535.886719 756.398438 538.367188 737.113281 541.363281 C 717.667969 544.394531 698.996094 547.097656 679.835938 549.199219 C 660.742188 551.074219 641.617188 552.609375 622.441406 553.644531 C 603.261719 554.539062 584.046875 554.75 564.824219 554.484375 C 545.597656 554.367188 526.363281 553.429688 507.164062 551.925781 C 487.964844 550.425781 468.757812 548.558594 449.640625 545.820312 C 430.515625 543.15625 411.414062 540.015625 392.460938 535.996094 C 373.496094 532.046875 354.566406 527.625 335.957031 521.808594 C 371.207031 538.738281 409.070312 549.957031 447.292969 558.742188 C 485.625 567.34375 524.726562 572.640625 564.054688 575.125 C 603.375 577.21875 642.945312 576.953125 682.234375 573.121094 C 721.789062 569.21875 759.859375 562.550781 798.246094 557.71875 C 836.589844 552.726562 874.976562 549.027344 913.257812 547.523438 C 932.398438 546.9375 951.511719 547.109375 970.492188 548.429688 C 989.488281 549.597656 1008.359375 551.886719 1026.902344 555.789062 C 1045.429688 559.714844 1063.621094 565.132812 1081.21875 572.199219 C 1098.828125 579.265625 1115.625 588.332031 1131.703125 598.648438 C 1163.902344 619.410156 1191.8125 646.710938 1217.277344 676.179688 C 1195.742188 643.769531 1169.824219 613.539062 1138.210938 589.449219 " fill-opacity="1" fill-rule="nonzero"/></g><g clip-path="url(#47be520bfd)"><path fill="#ffffff" d="M 490.527344 459.914062 C 537.433594 458.945312 584.390625 463.191406 630.359375 473.066406 C 653.332031 478.082031 676.097656 484.378906 698.34375 492.472656 C 720.671875 500.367188 742.554688 509.855469 763.453125 521.808594 C 745.679688 505.359375 724.707031 492.59375 703.152344 481.375 C 681.417969 470.390625 658.652344 461.257812 635.164062 454.421875 C 611.769531 447.246094 587.648438 442.5625 563.398438 439.175781 C 539.085938 436.117188 514.578125 435.0625 490.109375 435.148438 C 465.632812 435.636719 441.273438 438.023438 417.097656 441.324219 C 405.113281 443.609375 393.019531 445.257812 381.175781 448.132812 L 363.363281 452.101562 L 345.789062 457 C 299.015625 470.164062 253.9375 488.636719 212.042969 512.515625 C 258.039062 498.105469 303.914062 485.152344 350.332031 475.792969 C 396.722656 466.460938 443.582031 460.515625 490.527344 459.914062 " fill-opacity="1" fill-rule="nonzero"/></g><g clip-path="url(#ab34bd90bc)"><path fill="#ffffff" d="M 1003.4375 627.625 C 992.308594 626.199219 981.03125 625.789062 969.785156 626.453125 C 947.277344 627.96875 925.238281 634.023438 904.617188 642.941406 C 885.171875 651.742188 867.203125 662.453125 850.351562 676.429688 C 816.558594 675.609375 782.753906 674.355469 748.945312 673.953125 L 696.59375 673.09375 L 644.242188 672.742188 C 609.328125 672.625 574.421875 672.707031 539.5 673.261719 C 504.574219 673.757812 469.652344 674.542969 434.703125 676.214844 C 469.542969 679.425781 504.402344 681.753906 539.269531 683.78125 C 574.132812 685.867188 609.007812 687.46875 643.882812 688.890625 L 696.210938 690.847656 L 748.546875 692.273438 C 783.433594 693.390625 818.332031 693.601562 853.230469 694.304688 L 856.8125 694.371094 L 859.539062 691.871094 C 874.335938 678.28125 892.535156 666.316406 911.238281 657.25 C 930.042969 648.015625 950.195312 641.414062 970.980469 638.792969 C 981.363281 637.433594 991.882812 637.0625 1002.410156 637.648438 C 1012.898438 638.484375 1023.375 640.109375 1033.691406 642.726562 C 1054.1875 648.347656 1073.914062 657.570312 1092.1875 669.417969 C 1075.722656 655.226562 1056.769531 643.382812 1035.871094 635.730469 C 1025.398438 632.042969 1014.546875 629.210938 1003.4375 627.625 " fill-opacity="1" fill-rule="nonzero"/></g><g fill="#ffffff" fill-opacity="1"><g transform="translate(196.783615, 882.517447)"><g><path d="M 100.265625 -100.609375 L 35.5625 -100.609375 L 35.5625 -68.59375 L 93.5 -68.59375 L 93.5 -50.640625 L 35.5625 -50.640625 L 35.5625 -17.953125 L 102.296875 -17.953125 L 102.296875 0 L 15.578125 0 L 15.578125 -118.5625 L 100.265625 -118.5625 Z M 100.265625 -100.609375 "/></g></g></g><g fill="#ffffff" fill-opacity="1"><g transform="translate(312.973601, 882.517447)"><g><path d="M 131.9375 -90.78125 C 142.21875 -90.78125 150.289062 -87.675781 156.15625 -81.46875 C 162.03125 -75.257812 164.96875 -66.789062 164.96875 -56.0625 L 164.96875 0 L 145.5 0 L 145.5 -50.640625 C 145.5 -57.523438 143.601562 -62.914062 139.8125 -66.8125 C 136.03125 -70.707031 130.8125 -72.65625 124.15625 -72.65625 C 116.582031 -72.4375 110.566406 -69.703125 106.109375 -64.453125 C 101.648438 -59.203125 99.421875 -52.566406 99.421875 -44.546875 L 99.421875 0 L 79.9375 0 L 79.9375 -50.640625 C 79.9375 -57.523438 78.046875 -62.914062 74.265625 -66.8125 C 70.484375 -70.707031 65.316406 -72.65625 58.765625 -72.65625 C 51.085938 -72.4375 44.988281 -69.703125 40.46875 -64.453125 C 35.957031 -59.203125 33.703125 -52.566406 33.703125 -44.546875 L 33.703125 0 L 14.390625 0 L 14.390625 -90.109375 L 33.703125 -90.109375 L 33.703125 -72.65625 C 39.691406 -84.738281 50.585938 -90.78125 66.390625 -90.78125 C 74.410156 -90.78125 81.101562 -88.890625 86.46875 -85.109375 C 91.832031 -81.328125 95.585938 -75.992188 97.734375 -69.109375 C 103.265625 -83.554688 114.664062 -90.78125 131.9375 -90.78125 Z M 131.9375 -90.78125 "/></g></g></g><g fill="#ffffff" fill-opacity="1"><g transform="translate(494.710087, 882.517447)"><g><path d="M 53.015625 -90.78125 C 66.898438 -90.78125 78.191406 -86.570312 86.890625 -78.15625 C 95.585938 -69.75 99.9375 -58.710938 99.9375 -45.046875 C 99.9375 -31.503906 95.585938 -20.5 86.890625 -12.03125 C 78.191406 -3.5625 66.898438 0.671875 53.015625 0.671875 C 39.015625 0.671875 27.664062 -3.5625 18.96875 -12.03125 C 10.269531 -20.5 5.921875 -31.503906 5.921875 -45.046875 C 5.921875 -58.710938 10.269531 -69.75 18.96875 -78.15625 C 27.664062 -86.570312 39.015625 -90.78125 53.015625 -90.78125 Z M 53.015625 -74.015625 C 44.878906 -74.015625 38.242188 -71.300781 33.109375 -65.875 C 27.972656 -60.457031 25.40625 -53.460938 25.40625 -44.890625 C 25.40625 -36.191406 27.972656 -29.128906 33.109375 -23.703125 C 38.242188 -18.285156 44.875 -15.578125 53 -15.578125 C 61.132812 -15.578125 67.742188 -18.285156 72.828125 -23.703125 C 77.910156 -29.128906 80.453125 -36.191406 80.453125 -44.890625 C 80.453125 -53.460938 77.882812 -60.457031 72.75 -65.875 C 67.613281 -71.300781 61.035156 -74.015625 53.015625 -74.015625 Z M 53.015625 -74.015625 "/></g></g></g><g fill="#ffffff" fill-opacity="1"><g transform="translate(605.649578, 882.517447)"><g><path d="M 100.265625 -125.671875 L 100.265625 0 L 80.796875 0 L 80.796875 -15.40625 C 74.128906 -4.570312 63.570312 0.84375 49.125 0.84375 C 36.25 0.84375 25.828125 -3.414062 17.859375 -11.9375 C 9.898438 -20.46875 5.921875 -31.617188 5.921875 -45.390625 C 5.921875 -58.941406 9.875 -69.921875 17.78125 -78.328125 C 25.6875 -86.742188 36.019531 -90.953125 48.78125 -90.953125 C 63.226562 -90.953125 73.898438 -85.476562 80.796875 -74.53125 L 80.796875 -125.671875 Z M 33.28125 -23.625 C 38.414062 -18.144531 45.046875 -15.40625 53.171875 -15.40625 C 61.304688 -15.40625 67.941406 -18.144531 73.078125 -23.625 C 78.222656 -29.101562 80.796875 -36.132812 80.796875 -44.71875 C 80.796875 -53.40625 78.222656 -60.515625 73.078125 -66.046875 C 67.941406 -71.585938 61.304688 -74.359375 53.171875 -74.359375 C 45.046875 -74.359375 38.414062 -71.585938 33.28125 -66.046875 C 28.144531 -60.515625 25.519531 -53.40625 25.40625 -44.71875 C 25.519531 -36.132812 28.144531 -29.101562 33.28125 -23.625 Z M 33.28125 -23.625 "/></g></g></g><g fill="#ffffff" fill-opacity="1"><g transform="translate(726.243211, 882.517447)"><g><path d="M 53.015625 -90.78125 C 66.898438 -90.78125 78.191406 -86.570312 86.890625 -78.15625 C 95.585938 -69.75 99.9375 -58.710938 99.9375 -45.046875 C 99.9375 -31.503906 95.585938 -20.5 86.890625 -12.03125 C 78.191406 -3.5625 66.898438 0.671875 53.015625 0.671875 C 39.015625 0.671875 27.664062 -3.5625 18.96875 -12.03125 C 10.269531 -20.5 5.921875 -31.503906 5.921875 -45.046875 C 5.921875 -58.710938 10.269531 -69.75 18.96875 -78.15625 C 27.664062 -86.570312 39.015625 -90.78125 53.015625 -90.78125 Z M 53.015625 -74.015625 C 44.878906 -74.015625 38.242188 -71.300781 33.109375 -65.875 C 27.972656 -60.457031 25.40625 -53.460938 25.40625 -44.890625 C 25.40625 -36.191406 27.972656 -29.128906 33.109375 -23.703125 C 38.242188 -18.285156 44.875 -15.578125 53 -15.578125 C 61.132812 -15.578125 67.742188 -18.285156 72.828125 -23.703125 C 77.910156 -29.128906 80.453125 -36.191406 80.453125 -44.890625 C 80.453125 -53.460938 77.882812 -60.457031 72.75 -65.875 C 67.613281 -71.300781 61.035156 -74.015625 53.015625 -74.015625 Z M 53.015625 -74.015625 "/></g></g></g><g fill="#ffffff" fill-opacity="1"><g transform="translate(837.182703, 882.517447)"><g><path d="M 68.09375 -119.078125 C 76.445312 -119.078125 84.601562 -117.46875 92.5625 -114.25 C 100.519531 -111.03125 107.378906 -106.539062 113.140625 -100.78125 L 101.453125 -86.21875 C 97.160156 -90.84375 92.078125 -94.507812 86.203125 -97.21875 C 80.335938 -99.925781 74.410156 -101.28125 68.421875 -101.28125 C 56.566406 -101.28125 46.546875 -97.242188 38.359375 -89.171875 C 30.171875 -81.097656 26.078125 -71.25 26.078125 -59.625 C 26.078125 -47.875 30.171875 -37.960938 38.359375 -29.890625 C 46.546875 -21.816406 56.566406 -17.78125 68.421875 -17.78125 C 80.734375 -17.78125 91.742188 -22.46875 101.453125 -31.84375 L 113.3125 -18.625 C 107.21875 -12.644531 100.101562 -7.90625 91.96875 -4.40625 C 83.84375 -0.90625 75.65625 0.84375 67.40625 0.84375 C 50.019531 0.84375 35.398438 -4.941406 23.546875 -16.515625 C 11.691406 -28.085938 5.765625 -42.398438 5.765625 -59.453125 C 5.765625 -76.273438 11.773438 -90.414062 23.796875 -101.875 C 35.816406 -113.34375 50.582031 -119.078125 68.09375 -119.078125 Z M 68.09375 -119.078125 "/></g></g></g><g fill="#ffffff" fill-opacity="1"><g transform="translate(960.316884, 882.517447)"><g><path d="M 92.140625 -26.765625 L 32.34375 -26.765625 L 21 0 L 0.171875 0 L 52.5 -118.5625 L 73 -118.5625 L 124.828125 0 L 103.484375 0 Z M 84.515625 -44.546875 L 62.15625 -97.21875 L 39.796875 -44.546875 Z M 84.515625 -44.546875 "/></g></g></g><g fill="#ffffff" fill-opacity="1"><g transform="translate(1090.395295, 882.517447)"><g><path d="M 90.78125 0 L 69.109375 -35.90625 C 67.972656 -35.789062 66.164062 -35.734375 63.6875 -35.734375 L 35.5625 -35.734375 L 35.5625 0 L 15.578125 0 L 15.578125 -118.5625 L 63.6875 -118.5625 C 78.8125 -118.5625 90.550781 -115.03125 98.90625 -107.96875 C 107.269531 -100.914062 111.453125 -90.953125 111.453125 -78.078125 C 111.453125 -68.597656 109.332031 -60.582031 105.09375 -54.03125 C 100.863281 -47.476562 94.796875 -42.679688 86.890625 -39.640625 L 113.484375 0 Z M 35.5625 -53.6875 L 63.6875 -53.6875 C 82.882812 -53.6875 92.484375 -61.648438 92.484375 -77.578125 C 92.484375 -92.929688 82.882812 -100.609375 63.6875 -100.609375 L 35.5625 -100.609375 Z M 35.5625 -53.6875 "/></g></g></g><g fill="#ffffff" fill-opacity="1"><g transform="translate(209.207988, 960.472806)"><g><path d="M 27.8125 0 L 21.171875 -11 C 20.828125 -10.96875 20.273438 -10.953125 19.515625 -10.953125 L 10.890625 -10.953125 L 10.890625 0 L 4.78125 0 L 4.78125 -36.328125 L 19.515625 -36.328125 C 24.148438 -36.328125 27.742188 -35.242188 30.296875 -33.078125 C 32.859375 -30.921875 34.140625 -27.867188 34.140625 -23.921875 C 34.140625 -21.015625 33.488281 -18.554688 32.1875 -16.546875 C 30.894531 -14.546875 29.039062 -13.078125 26.625 -12.140625 L 34.765625 0 Z M 10.890625 -16.453125 L 19.515625 -16.453125 C 25.390625 -16.453125 28.328125 -18.890625 28.328125 -23.765625 C 28.328125 -28.472656 25.390625 -30.828125 19.515625 -30.828125 L 10.890625 -30.828125 Z M 10.890625 -16.453125 "/></g></g></g><g fill="#ffffff" fill-opacity="1"><g transform="translate(266.001477, 960.472806)"><g><path d="M 30.71875 -30.828125 L 10.890625 -30.828125 L 10.890625 -21.015625 L 28.640625 -21.015625 L 28.640625 -15.515625 L 10.890625 -15.515625 L 10.890625 -5.5 L 31.34375 -5.5 L 31.34375 0 L 4.78125 0 L 4.78125 -36.328125 L 30.71875 -36.328125 Z M 30.71875 -30.828125 "/></g></g></g><g fill="#ffffff" fill-opacity="1"><g transform="translate(319.321226, 960.472806)"><g><path d="M 36.265625 0 L 30.25 0 L 10.890625 -26.046875 L 10.890625 0 L 4.78125 0 L 4.78125 -36.328125 L 10.796875 -36.328125 L 30.25 -10.21875 L 30.25 -36.328125 L 36.265625 -36.328125 Z M 36.265625 0 "/></g></g></g><g fill="#ffffff" fill-opacity="1"><g transform="translate(379.692185, 960.472806)"><g><path d="M 29.578125 -30.828125 L 18.0625 -30.828125 L 18.0625 0 L 11.9375 0 L 11.9375 -30.828125 L 0.46875 -30.828125 L 0.46875 -36.328125 L 29.578125 -36.328125 Z M 29.578125 -30.828125 "/></g></g></g><g fill="#ffffff" fill-opacity="1"><g transform="translate(429.019684, 960.472806)"><g/></g></g><g fill="#ffffff" fill-opacity="1"><g transform="translate(461.704266, 960.472806)"><g><path d="M 16.703125 -36.578125 C 21.410156 -36.578125 25.648438 -35.332031 29.421875 -32.84375 L 26.875 -27.453125 C 23.175781 -29.703125 19.628906 -30.828125 16.234375 -30.828125 C 14.398438 -30.828125 12.957031 -30.492188 11.90625 -29.828125 C 10.851562 -29.171875 10.328125 -28.238281 10.328125 -27.03125 C 10.328125 -25.820312 10.8125 -24.789062 11.78125 -23.9375 C 12.75 -23.09375 13.957031 -22.472656 15.40625 -22.078125 C 16.863281 -21.679688 18.4375 -21.179688 20.125 -20.578125 C 21.820312 -19.972656 23.394531 -19.332031 24.84375 -18.65625 C 26.300781 -17.976562 27.503906 -16.921875 28.453125 -15.484375 C 29.410156 -14.046875 29.890625 -12.3125 29.890625 -10.28125 C 29.890625 -7.09375 28.617188 -4.546875 26.078125 -2.640625 C 23.535156 -0.742188 20.238281 0.203125 16.1875 0.203125 C 13.414062 0.203125 10.734375 -0.3125 8.140625 -1.34375 C 5.546875 -2.382812 3.28125 -3.785156 1.34375 -5.546875 L 4 -10.84375 C 5.832031 -9.144531 7.84375 -7.835938 10.03125 -6.921875 C 12.226562 -6.003906 14.316406 -5.546875 16.296875 -5.546875 C 18.441406 -5.546875 20.109375 -5.9375 21.296875 -6.71875 C 22.492188 -7.5 23.09375 -8.582031 23.09375 -9.96875 C 23.09375 -11.207031 22.609375 -12.25 21.640625 -13.09375 C 20.671875 -13.945312 19.457031 -14.570312 18 -14.96875 C 16.550781 -15.363281 14.976562 -15.847656 13.28125 -16.421875 C 11.582031 -16.992188 10.003906 -17.597656 8.546875 -18.234375 C 7.097656 -18.878906 5.890625 -19.910156 4.921875 -21.328125 C 3.960938 -22.742188 3.484375 -24.457031 3.484375 -26.46875 C 3.484375 -29.539062 4.691406 -31.992188 7.109375 -33.828125 C 9.523438 -35.660156 12.722656 -36.578125 16.703125 -36.578125 Z M 16.703125 -36.578125 "/></g></g></g><g fill="#ffffff" fill-opacity="1"><g transform="translate(513.261201, 960.472806)"><g><path d="M 43.171875 0 L 37.515625 0 L 37.46875 -27.140625 L 26 -3.78125 L 22 -3.78125 L 10.53125 -27.140625 L 10.53125 0 L 4.78125 0 L 4.78125 -36.328125 L 12.03125 -36.328125 L 24.03125 -12.1875 L 35.953125 -36.328125 L 43.171875 -36.328125 Z M 43.171875 0 "/></g></g></g><g fill="#ffffff" fill-opacity="1"><g transform="translate(580.527778, 960.472806)"><g><path d="M 28.234375 -8.203125 L 9.90625 -8.203125 L 6.4375 0 L 0.046875 0 L 16.09375 -36.328125 L 22.359375 -36.328125 L 38.25 0 L 31.703125 0 Z M 25.890625 -13.640625 L 19.046875 -29.78125 L 12.1875 -13.640625 Z M 25.890625 -13.640625 "/></g></g></g><g fill="#ffffff" fill-opacity="1"><g transform="translate(638.099013, 960.472806)"><g><path d="M 27.8125 0 L 21.171875 -11 C 20.828125 -10.96875 20.273438 -10.953125 19.515625 -10.953125 L 10.890625 -10.953125 L 10.890625 0 L 4.78125 0 L 4.78125 -36.328125 L 19.515625 -36.328125 C 24.148438 -36.328125 27.742188 -35.242188 30.296875 -33.078125 C 32.859375 -30.921875 34.140625 -27.867188 34.140625 -23.921875 C 34.140625 -21.015625 33.488281 -18.554688 32.1875 -16.546875 C 30.894531 -14.546875 29.039062 -13.078125 26.625 -12.140625 L 34.765625 0 Z M 10.890625 -16.453125 L 19.515625 -16.453125 C 25.390625 -16.453125 28.328125 -18.890625 28.328125 -23.765625 C 28.328125 -28.472656 25.390625 -30.828125 19.515625 -30.828125 L 10.890625 -30.828125 Z M 10.890625 -16.453125 "/></g></g></g><g fill="#ffffff" fill-opacity="1"><g transform="translate(694.892483, 960.472806)"><g><path d="M 29.578125 -30.828125 L 18.0625 -30.828125 L 18.0625 0 L 11.9375 0 L 11.9375 -30.828125 L 0.46875 -30.828125 L 0.46875 -36.328125 L 29.578125 -36.328125 Z M 29.578125 -30.828125 "/></g></g></g><g fill="#ffffff" fill-opacity="1"><g transform="translate(744.219959, 960.472806)"><g><path d="M 3.3125 -5.421875 C 3.9375 -6.054688 4.71875 -6.375 5.65625 -6.375 C 6.59375 -6.375 7.367188 -6.054688 7.984375 -5.421875 C 8.609375 -4.785156 8.921875 -3.984375 8.921875 -3.015625 C 8.921875 -2.003906 8.609375 -1.171875 7.984375 -0.515625 C 7.367188 0.140625 6.59375 0.46875 5.65625 0.46875 C 4.71875 0.46875 3.9375 0.140625 3.3125 -0.515625 C 2.695312 -1.171875 2.390625 -2.003906 2.390625 -3.015625 C 2.390625 -3.984375 2.695312 -4.785156 3.3125 -5.421875 Z M 3.3125 -5.421875 "/></g></g></g><g fill="#ffffff" fill-opacity="1"><g transform="translate(774.830652, 960.472806)"><g><path d="M 27.8125 0 L 21.171875 -11 C 20.828125 -10.96875 20.273438 -10.953125 19.515625 -10.953125 L 10.890625 -10.953125 L 10.890625 0 L 4.78125 0 L 4.78125 -36.328125 L 19.515625 -36.328125 C 24.148438 -36.328125 27.742188 -35.242188 30.296875 -33.078125 C 32.859375 -30.921875 34.140625 -27.867188 34.140625 -23.921875 C 34.140625 -21.015625 33.488281 -18.554688 32.1875 -16.546875 C 30.894531 -14.546875 29.039062 -13.078125 26.625 -12.140625 L 34.765625 0 Z M 10.890625 -16.453125 L 19.515625 -16.453125 C 25.390625 -16.453125 28.328125 -18.890625 28.328125 -23.765625 C 28.328125 -28.472656 25.390625 -30.828125 19.515625 -30.828125 L 10.890625 -30.828125 Z M 10.890625 -16.453125 "/></g></g></g><g fill="#ffffff" fill-opacity="1"><g transform="translate(831.624122, 960.472806)"><g><path d="M 10.890625 0 L 4.78125 0 L 4.78125 -36.328125 L 10.890625 -36.328125 Z M 10.890625 0 "/></g></g></g><g fill="#ffffff" fill-opacity="1"><g transform="translate(866.589964, 960.472806)"><g><path d="M 4.78125 -36.328125 L 19.671875 -36.328125 C 25.097656 -36.328125 29.582031 -34.613281 33.125 -31.1875 C 36.675781 -27.757812 38.453125 -23.414062 38.453125 -18.15625 C 38.453125 -12.90625 36.671875 -8.566406 33.109375 -5.140625 C 29.546875 -1.710938 25.015625 0 19.515625 0 L 4.78125 0 Z M 10.890625 -30.828125 L 10.890625 -5.5 L 19.828125 -5.5 C 23.390625 -5.5 26.351562 -6.679688 28.71875 -9.046875 C 31.09375 -11.421875 32.28125 -14.441406 32.28125 -18.109375 C 32.28125 -21.773438 31.054688 -24.8125 28.609375 -27.21875 C 26.171875 -29.625 23.15625 -30.828125 19.5625 -30.828125 Z M 10.890625 -30.828125 "/></g></g></g><g fill="#ffffff" fill-opacity="1"><g transform="translate(926.079537, 960.472806)"><g><path d="M 30.71875 -30.828125 L 10.890625 -30.828125 L 10.890625 -21.015625 L 28.640625 -21.015625 L 28.640625 -15.515625 L 10.890625 -15.515625 L 10.890625 -5.5 L 31.34375 -5.5 L 31.34375 0 L 4.78125 0 L 4.78125 -36.328125 L 30.71875 -36.328125 Z M 30.71875 -30.828125 "/></g></g></g><g fill="#ffffff" fill-opacity="1"><g transform="translate(979.399263, 960.472806)"><g/></g></g><g fill="#ffffff" fill-opacity="1"><g transform="translate(1012.083824, 960.472806)"><g><path d="M 30.71875 -30.828125 L 10.890625 -30.828125 L 10.890625 -21.015625 L 28.640625 -21.015625 L 28.640625 -15.515625 L 10.890625 -15.515625 L 10.890625 -5.5 L 31.34375 -5.5 L 31.34375 0 L 4.78125 0 L 4.78125 -36.328125 L 30.71875 -36.328125 Z M 30.71875 -30.828125 "/></g></g></g><g fill="#ffffff" fill-opacity="1"><g transform="translate(1065.40355, 960.472806)"><g><path d="M 28.234375 -8.203125 L 9.90625 -8.203125 L 6.4375 0 L 0.046875 0 L 16.09375 -36.328125 L 22.359375 -36.328125 L 38.25 0 L 31.703125 0 Z M 25.890625 -13.640625 L 19.046875 -29.78125 L 12.1875 -13.640625 Z M 25.890625 -13.640625 "/></g></g></g><g fill="#ffffff" fill-opacity="1"><g transform="translate(1122.974785, 960.472806)"><g><path d="M 16.703125 -36.578125 C 21.410156 -36.578125 25.648438 -35.332031 29.421875 -32.84375 L 26.875 -27.453125 C 23.175781 -29.703125 19.628906 -30.828125 16.234375 -30.828125 C 14.398438 -30.828125 12.957031 -30.492188 11.90625 -29.828125 C 10.851562 -29.171875 10.328125 -28.238281 10.328125 -27.03125 C 10.328125 -25.820312 10.8125 -24.789062 11.78125 -23.9375 C 12.75 -23.09375 13.957031 -22.472656 15.40625 -22.078125 C 16.863281 -21.679688 18.4375 -21.179688 20.125 -20.578125 C 21.820312 -19.972656 23.394531 -19.332031 24.84375 -18.65625 C 26.300781 -17.976562 27.503906 -16.921875 28.453125 -15.484375 C 29.410156 -14.046875 29.890625 -12.3125 29.890625 -10.28125 C 29.890625 -7.09375 28.617188 -4.546875 26.078125 -2.640625 C 23.535156 -0.742188 20.238281 0.203125 16.1875 0.203125 C 13.414062 0.203125 10.734375 -0.3125 8.140625 -1.34375 C 5.546875 -2.382812 3.28125 -3.785156 1.34375 -5.546875 L 4 -10.84375 C 5.832031 -9.144531 7.84375 -7.835938 10.03125 -6.921875 C 12.226562 -6.003906 14.316406 -5.546875 16.296875 -5.546875 C 18.441406 -5.546875 20.109375 -5.9375 21.296875 -6.71875 C 22.492188 -7.5 23.09375 -8.582031 23.09375 -9.96875 C 23.09375 -11.207031 22.609375 -12.25 21.640625 -13.09375 C 20.671875 -13.945312 19.457031 -14.570312 18 -14.96875 C 16.550781 -15.363281 14.976562 -15.847656 13.28125 -16.421875 C 11.582031 -16.992188 10.003906 -17.597656 8.546875 -18.234375 C 7.097656 -18.878906 5.890625 -19.910156 4.921875 -21.328125 C 3.960938 -22.742188 3.484375 -24.457031 3.484375 -26.46875 C 3.484375 -29.539062 4.691406 -31.992188 7.109375 -33.828125 C 9.523438 -35.660156 12.722656 -36.578125 16.703125 -36.578125 Z M 16.703125 -36.578125 "/></g></g></g><g fill="#ffffff" fill-opacity="1"><g transform="translate(1174.531699, 960.472806)"><g><path d="M 19.671875 -12.09375 L 19.671875 0 L 13.59375 0 L 13.59375 -11.890625 L 0.046875 -36.328125 L 6.234375 -36.328125 L 16.609375 -18.625 L 26.78125 -36.328125 L 33 -36.328125 Z M 19.671875 -12.09375 "/></g></g></g></svg>